<svg xmlns="http://www.w3.org/2000/svg" width="511" height="489" viewBox="0 0 511 489">
<g>
<path d="M 152.39,476.02 C135.39,473.47 121.68,463.76 114.88,449.45 C111.23,441.79 109.98,432.11 110.09,412.49 C110.19,394.59 109.34,390.71 104.27,385.77 C99.09,380.72 94.29,378.97 82.68,377.87 C62.09,375.94 47.78,366.92 36.13,348.54 C32.11,342.21 29.32,334.71 28.06,326.86 C26.83,319.25 28.47,221.61 30.08,206.00 C33.28,175.06 42.94,146.91 59.24,121.03 C66.49,109.53 72.01,102.76 85.18,89.22 C113.88,59.73 147.30,39.52 184.50,29.14 C233.09,15.58 286.24,17.22 331.00,33.65 C366.78,46.78 391.48,62.42 417.58,88.45 C435.73,106.56 444.57,117.59 452.69,132.26 C458.40,142.56 467.27,161.00 466.52,161.00 C466.29,161.00 463.18,158.79 459.61,156.08 C453.97,151.82 442.05,145.31 436.81,143.65 C435.88,143.35 434.31,141.85 433.32,140.30 C419.27,118.32 396.53,95.48 373.32,80.03 C342.57,59.56 313.37,48.76 275.60,43.86 C256.65,41.40 240.77,41.72 218.50,45.01 C176.51,51.22 140.81,67.73 109.94,95.25 C81.61,120.48 64.92,147.09 56.48,180.41 C50.85,202.66 50.82,202.95 49.88,254.00 C49.38,280.68 48.72,306.10 48.39,310.50 C46.98,329.86 55.60,345.54 72.25,353.91 C77.75,356.67 80.71,357.44 88.25,358.10 C97.16,358.87 105.31,361.04 111.72,364.36 C119.59,368.42 129.35,384.45 131.03,396.03 C131.54,399.59 131.98,410.15 132.00,419.50 C132.04,433.88 132.33,437.12 133.90,440.50 C138.13,449.65 146.63,454.09 161.25,454.79 L 171.00,455.27 L 171.00,444.68 C171.00,431.55 172.34,424.93 175.68,421.59 C180.58,416.69 189.20,417.33 192.83,422.86 C194.13,424.84 194.61,428.67 195.00,439.95 L 195.50,454.50 L 216.68,454.77 L 237.86,455.04 L 238.18,439.43 L 238.50,423.82 L 241.31,421.41 C244.47,418.70 251.01,418.14 255.53,420.19 C260.03,422.25 261.15,426.01 261.75,441.14 L 262.30,455.00 L 283.15,455.00 L 304.00,455.00 L 304.00,441.97 C304.00,427.13 305.13,423.02 309.87,420.57 C314.15,418.35 320.18,418.57 323.33,421.05 C326.97,423.91 327.99,428.64 327.99,442.68 C328.00,457.14 327.50,456.66 340.68,454.95 C350.45,453.68 356.11,451.55 360.24,447.57 C366.03,442.01 366.39,440.35 367.08,416.00 C367.80,390.51 368.99,384.94 375.76,375.03 C383.01,364.44 392.40,359.65 409.34,357.92 C417.34,357.10 420.86,356.21 425.90,353.73 C438.38,347.59 446.23,338.04 449.61,324.89 C450.97,319.65 451.14,315.77 450.59,303.32 L 449.93,288.14 L 460.18,278.12 C465.81,272.60 470.65,268.32 470.92,268.59 C471.41,269.08 471.60,276.49 471.94,309.50 C472.08,323.59 471.78,327.65 470.20,333.21 C467.46,342.85 462.71,350.28 452.93,360.20 C440.27,373.06 434.20,375.66 409.15,378.91 C400.41,380.05 395.52,382.99 391.93,389.26 C389.59,393.34 389.48,394.39 389.00,417.50 L 388.50,441.50 L 384.77,449.32 C378.77,461.88 369.01,469.92 353.48,475.11 C350.30,476.17 330.33,476.47 253.50,476.61 C200.70,476.71 155.20,476.44 152.39,476.02 M 339.50,422.08 C337.85,421.04 329.68,413.27 321.34,404.84 C307.38,390.72 306.05,389.05 304.53,383.80 C303.46,380.10 303.13,376.78 303.58,374.30 C305.39,364.38 305.80,363.92 370.21,299.66 C436.46,233.56 436.08,234.00 437.63,222.67 C438.50,216.31 436.37,207.03 432.61,200.76 C424.17,186.70 407.44,182.39 391.06,190.06 C385.10,192.85 380.40,197.29 335.53,242.51 C301.46,276.85 285.37,292.39 282.78,293.46 C276.35,296.12 271.57,295.51 267.06,291.43 C261.97,286.84 260.47,282.50 262.09,277.10 C263.09,273.74 271.41,264.97 312.62,223.83 C367.31,169.22 367.87,168.55 368.77,156.01 C369.47,146.23 367.21,139.49 360.96,132.65 C354.54,125.63 349.22,123.00 341.43,123.01 C333.64,123.01 329.09,124.36 324.37,128.06 C322.24,129.73 300.48,151.06 276.00,175.47 C227.76,223.56 228.53,222.94 220.01,220.78 C213.81,219.20 210.00,215.13 210.00,210.07 C210.00,207.79 210.63,204.49 211.39,202.72 C212.19,200.87 233.39,178.99 261.14,151.37 C307.33,105.40 309.84,103.08 317.00,99.70 C335.75,90.84 355.82,92.42 373.14,104.11 C387.55,113.85 396.48,130.73 398.39,151.85 C398.65,154.80 399.13,157.47 399.46,157.79 C399.78,158.11 403.51,158.50 407.75,158.66 C424.86,159.31 438.46,164.76 449.90,175.55 C462.46,187.39 467.48,200.62 466.77,220.00 C466.29,233.11 464.46,239.09 457.94,248.86 C455.51,252.50 430.89,277.57 393.44,314.56 C360.13,347.45 332.42,375.21 331.87,376.24 C331.01,377.85 332.70,379.99 343.39,390.89 C355.12,402.84 357.08,405.50 358.57,411.42 C359.48,415.04 354.01,420.62 347.72,422.49 C344.93,423.32 342.61,424.00 342.57,424.00 C342.53,423.99 341.15,423.13 339.50,422.08 M 169.47,369.05 C166.19,367.72 164.73,365.24 164.73,361.02 C164.73,356.82 166.91,352.67 180.27,331.50 C190.95,314.56 193.61,312.55 199.33,317.05 C202.82,319.79 203.99,324.60 203.99,336.18 C204.00,341.50 204.47,349.26 205.05,353.43 C206.98,367.31 203.52,370.03 184.00,369.94 C177.12,369.90 170.58,369.50 169.47,369.05 M 262.07,336.41 C254.40,334.35 245.02,329.52 239.23,324.66 C217.86,306.70 212.93,274.81 228.02,252.20 C230.53,248.44 250.77,227.78 282.32,196.77 C320.95,158.80 333.34,147.18 335.72,146.71 C339.28,145.99 344.98,147.37 346.16,149.23 C347.62,151.53 347.03,157.44 345.01,160.75 C343.92,162.54 322.14,184.72 296.61,210.05 C271.08,235.37 248.58,258.43 246.63,261.29 C243.01,266.58 240.00,275.81 240.00,281.60 C240.00,288.59 243.74,297.37 249.36,303.59 C261.56,317.06 276.42,320.06 292.73,312.35 C297.64,310.03 305.55,302.61 346.00,262.40 C372.12,236.43 395.07,213.80 397.00,212.11 C401.52,208.14 407.97,207.82 413.10,211.31 C416.16,213.39 416.49,214.08 416.44,218.22 C416.40,221.98 415.72,223.63 412.76,227.25 C407.25,233.97 319.02,320.48 312.54,325.51 C305.81,330.74 298.27,334.58 290.87,336.55 C284.02,338.37 269.10,338.30 262.07,336.41 M 100.09,313.89 C92.57,310.13 84.19,302.16 81.19,295.93 C79.99,293.42 78.58,288.92 78.07,285.93 C75.39,270.28 76.15,232.37 79.29,224.86 C81.45,219.68 86.69,214.19 92.09,211.46 C99.60,207.65 108.95,206.71 134.00,207.24 C154.12,207.67 157.11,207.95 162.24,209.93 C169.57,212.75 175.50,218.65 180.57,228.16 L 184.49,235.50 L 184.83,249.57 C185.10,260.26 184.83,264.46 183.73,267.07 C180.73,274.13 153.87,308.14 147.63,312.76 C142.86,316.29 138.65,316.99 121.91,316.99 C106.46,317.00 106.26,316.97 100.09,313.89 Z" fill="rgba(0,0,0,1)"/>
</g>
</svg>